<svg width="132" height="138" viewBox="0 0 132 138" fill="none" xmlns="http://www.w3.org/2000/svg">
  <mask id="path-1-inside-1_81_6" fill="white">
    <path d="M131.535 39.8394C124.985 25.7928 113.897 14.3604 100.057 7.38446C86.2168 0.408515 70.4312 -1.70475 55.2436 1.38519C40.0561 4.47513 26.3511 12.5883 16.337 24.4174C6.32289 36.2465 0.582937 51.1027 0.0420338 66.5919C-0.498869 82.0812 4.19078 97.3015 13.3553 109.8C22.5198 122.299 35.6255 131.349 50.5605 135.491C65.4955 139.632 81.3901 138.625 95.683 132.632C109.976 126.638 121.835 116.007 129.349 102.452L69 69L131.535 39.8394Z"/>
  </mask>
  <path d="M131.535 39.8394C124.985 25.7928 113.897 14.3604 100.057 7.38446C86.2168 0.408515 70.4312 -1.70475 55.2436 1.38519C40.0561 4.47513 26.3511 12.5883 16.337 24.4174C6.32289 36.2465 0.582937 51.1027 0.0420338 66.5919C-0.498869 82.0812 4.19078 97.3015 13.3553 109.8C22.5198 122.299 35.6255 131.349 50.5605 135.491C65.4955 139.632 81.3901 138.625 95.683 132.632C109.976 126.638 121.835 116.007 129.349 102.452L69 69L131.535 39.8394Z" stroke="white" stroke-width="12" mask="url(#path-1-inside-1_81_6)"/>
</svg>
